<svg id="SvgjsSvg1045" width="288" height="288" xmlns="http://www.w3.org/2000/svg" version="1.1" xmlns:xlink="http://www.w3.org/1999/xlink" xmlns:svgjs="http://svgjs.com/svgjs"><defs id="SvgjsDefs1046"></defs><g id="SvgjsG1047"><svg xmlns="http://www.w3.org/2000/svg" enable-background="new 0 0 64 64" viewBox="0 0 64 64" width="288" height="288"><path fill="#545866" d="M45,24c0,0.55,0,1.45,0,2v36c0,0.55-0.45,1-1,1H4c-0.55,0-1-0.45-1-1V30.01c0-0.55,0-1.45,0-2V26
			c0-0.55,0-1.45,0-2v-2c0-0.55,0.45-1,1-1h40c0.55,0,1,0.45,1,1V24z" class="color545C66 svgShape"></path><path fill="#2256f3" d="M45,20c0,0.55,0,1.45,0,2v36c0,0.55-0.45,1-1,1H4c-0.55,0-1-0.45-1-1V26.01c0-0.55,0-1.45,0-2V22
			c0-0.55,0-1.45,0-2v-2c0-0.55,0.45-1,1-1h40c0.55,0,1,0.45,1,1V20z" class="color656D78 svgShape"></path><path fill="#92abf7" d="M53,16c0,0.55,0,1.45,0,2v36c0,0.55-0.45,1-1,1H12c-0.55,0-1-0.45-1-1V22.01c0-0.55,0-1.45,0-2V18
			c0-0.55,0-1.45,0-2v-2c0-0.55,0.45-1,1-1h40c0.55,0,1,0.45,1,1V16z" class="colorF7C292 svgShape"></path><path fill="#a6bcff" d="M53,12c0,0.55,0,1.45,0,2v36c0,0.55-0.45,1-1,1H12c-0.55,0-1-0.45-1-1V18.01c0-0.55,0-1.45,0-2V14
			c0-0.55,0-1.45,0-2v-2c0-0.55,0.45-1,1-1h40c0.55,0,1,0.45,1,1V12z" class="colorFFD2A6 svgShape"></path><path fill="#cccfd9" d="M61,8c0,0.55,0,1.45,0,2v36c0,0.55-0.45,1-1,1H20c-0.55,0-1-0.45-1-1V14.01c0-0.55,0-1.45,0-2V10
			c0-0.55,0-1.45,0-2V6c0-0.55,0.45-1,1-1h40c0.55,0,1,0.45,1,1V8z" class="colorCCD1D9 svgShape"></path><path fill="#e6e8ed" d="M61,4c0,0.55,0,1.45,0,2v36c0,0.55-0.45,1-1,1H20c-0.55,0-1-0.45-1-1V10.01c0-0.55,0-1.45,0-2V6
			c0-0.55,0-1.45,0-2V2c0-0.55,0.45-1,1-1h40c0.55,0,1,0.45,1,1V4z" class="colorE6E9ED svgShape"></path></svg></g></svg>